<?xml version="1.0" encoding="UTF-8"?>
<svg width="20px" height="20px" fill='rgb(255, 95, 75)' version="1.1" viewBox="0 0 100 100" xmlns="http://www.w3.org/2000/svg">
 <path d="m50 42.008c-4.0742 0-7.707 1.6406-10.363 4.2969s-4.2969 6.2891-4.2969 10.363c0 4.0312 1.6406 7.7109 4.2969 10.367s6.2891 4.293 10.363 4.293c4.0312 0 7.707-1.6406 10.363-4.293 2.6562-2.6562 4.2969-6.3359 4.2969-10.367 0-4.0742-1.6406-7.707-4.2969-10.363s-6.332-4.2969-10.363-4.2969zm27.906-14.266h-8.1523v-4.6953c0-6.1133-5.0039-11.117-11.117-11.117h-17.273c-6.1562 0-11.16 5.0039-11.16 11.117v4.6953h-8.1523c-8.6797 0-15.812 7.1289-15.812 15.812v28.699c0 8.6836 7.1328 15.812 15.812 15.812h55.852c8.7266 0 15.852-7.1289 15.852-15.812l0.003906-28.699c0-8.6797-7.1289-15.812-15.852-15.812zm-13.109 43.719c-3.8125 3.7617-9.0352 6.1133-14.797 6.1133-5.8008 0-11.031-2.3516-14.793-6.1133-3.8086-3.8086-6.1562-9.0352-6.1562-14.797 0-5.7578 2.3516-11.027 6.1562-14.793 3.7617-3.8086 8.9922-6.1133 14.793-6.1133 5.7578 0 10.984 2.3047 14.797 6.1133 3.7617 3.7656 6.1094 9.0352 6.1094 14.793 0 5.7578-2.3477 10.988-6.1094 14.797z"/>
</svg>
