<svg width="202" height="48" viewBox="0 0 202 48" fill="none" xmlns="http://www.w3.org/2000/svg">
<g clip-path="url(#clip0_362_196)">
<path d="M70.8597 30.9757L67.0753 24.4368H64.2843V30.9757H60.5928V12.1426H68.0808C69.8101 12.1426 71.2811 12.7524 72.494 13.9719C73.7068 15.1914 74.3132 16.6623 74.3132 18.3845C74.3157 19.5411 73.9707 20.6714 73.3233 21.6273C72.6782 22.61 71.7695 23.3888 70.7025 23.8733L74.8473 30.9774L70.8597 30.9757ZM64.2843 15.6116V21.1817H68.0808C68.7756 21.1817 69.373 20.908 69.8732 20.3605C70.3681 19.8238 70.6365 19.1147 70.6217 18.3827C70.6369 17.6563 70.3685 16.9528 69.8741 16.4232C69.3733 15.8822 68.7756 15.6116 68.0808 15.6116H64.2843Z" fill="black"/>
<path d="M78.5668 15.909C78.0091 15.9003 77.4767 15.6735 77.0822 15.2769C76.6877 14.8802 76.4621 14.3446 76.4532 13.7836C76.4517 13.5027 76.5067 13.2245 76.6147 12.9656C76.7228 12.7066 76.8816 12.4723 77.0819 12.2766C77.2713 12.0713 77.5012 11.9078 77.7568 11.7967C78.0125 11.6856 78.2883 11.6291 78.5668 11.631C78.8494 11.6275 79.1296 11.683 79.3897 11.7942C79.6498 11.9053 79.8841 12.0696 80.0778 12.2766C80.2779 12.4724 80.4366 12.7068 80.5447 12.9657C80.6527 13.2246 80.7077 13.5028 80.7065 13.7836C80.7086 14.0624 80.6538 14.3387 80.5457 14.5955C80.4376 14.8523 80.2783 15.0841 80.0778 15.2766C79.8823 15.4802 79.6473 15.6415 79.3874 15.7502C79.1275 15.859 78.8483 15.9131 78.5668 15.909ZM76.8517 30.9769V17.5235H80.3027V30.9769H76.8517Z" fill="black"/>
<path d="M91.0566 12.1426C93.6247 12.1426 95.7688 13.0485 97.4888 14.8604C99.2087 16.6722 100.069 18.9054 100.07 21.56C100.07 24.2152 99.2099 26.4484 97.4888 28.2596C95.7676 30.0709 93.6236 30.9768 91.0566 30.9774H83.625V12.1426H91.0566ZM91.0566 27.4254C92.6776 27.4254 93.997 26.8828 95.0147 25.7978C96.0325 24.7128 96.5408 23.3002 96.5396 21.56C96.5396 19.8198 96.0313 18.4072 95.0147 17.3222C93.9981 16.2371 92.6788 15.6943 91.0566 15.6938H87.3122V27.4236L91.0566 27.4254Z" fill="black"/>
<path d="M104.243 15.9091C103.685 15.9001 103.153 15.6732 102.759 15.2766C102.364 14.8799 102.139 14.3445 102.13 13.7836C102.128 13.5028 102.183 13.2245 102.291 12.9656C102.4 12.7066 102.558 12.4723 102.759 12.2766C102.948 12.0714 103.178 11.908 103.433 11.7968C103.689 11.6857 103.964 11.6292 104.243 11.631C104.525 11.6274 104.806 11.6828 105.066 11.794C105.326 11.9051 105.561 12.0695 105.755 12.2766C105.954 12.4725 106.113 12.7069 106.221 12.9658C106.329 13.2247 106.384 13.5028 106.382 13.7836C106.385 14.0624 106.33 14.3387 106.222 14.5955C106.114 14.8522 105.955 15.084 105.755 15.2766C105.559 15.4803 105.324 15.6416 105.064 15.7504C104.804 15.8591 104.524 15.9132 104.243 15.9091ZM102.531 30.9769V17.5235H105.981V30.9769H102.531Z" fill="black"/>
<path d="M112.214 21.3435C112.214 21.7023 112.45 21.9935 112.922 22.2171C113.477 22.4702 114.054 22.6685 114.647 22.8094C115.337 22.9838 116.016 23.1994 116.68 23.455C117.364 23.7205 117.962 24.1724 118.405 24.7602C118.878 25.37 119.114 26.1323 119.114 27.0473C119.114 28.4287 118.601 29.4916 117.576 30.2359C116.551 30.9802 115.271 31.3524 113.738 31.3524C110.992 31.3524 109.12 30.2851 108.121 28.1506L111.117 26.455C111.508 27.6198 112.382 28.2022 113.738 28.2022C114.969 28.2022 115.584 27.8166 115.583 27.0455C115.583 26.6862 115.347 26.395 114.875 26.1719C114.319 25.9179 113.742 25.7153 113.15 25.5665C112.46 25.3832 111.781 25.1586 111.117 24.8938C110.441 24.6264 109.846 24.1858 109.392 23.6158C108.919 23.0334 108.683 22.3024 108.683 21.423C108.683 20.0952 109.169 19.0503 110.141 18.2885C111.113 17.5268 112.321 17.1456 113.765 17.145C114.801 17.1321 115.823 17.3868 116.734 17.8849C117.621 18.3749 118.354 19.1068 118.847 19.9964L115.904 21.6108C115.477 20.6965 114.763 20.2393 113.765 20.2393C113.32 20.2393 112.95 20.3377 112.655 20.5346C112.517 20.6187 112.404 20.7377 112.327 20.8797C112.249 21.0217 112.21 21.1816 112.214 21.3435V21.3435Z" fill="black"/>
<path d="M127.512 31.3535C125.497 31.3535 123.817 30.6718 122.47 29.3084C121.124 27.945 120.451 26.2589 120.451 24.2502C120.451 22.2409 121.124 20.5546 122.47 19.1912C123.816 17.8278 125.497 17.1464 127.512 17.147C128.761 17.1322 129.992 17.4576 131.072 18.0887C132.107 18.6803 132.951 19.5581 133.504 20.6178L130.536 22.365C130.272 21.8125 129.848 21.3531 129.32 21.0467C128.765 20.7202 128.131 20.5526 127.488 20.5619C126.454 20.5619 125.598 20.9072 124.921 21.598C124.243 22.2887 123.904 23.1722 123.904 24.2485C123.904 25.3073 124.243 26.1809 124.921 26.8693C125.599 27.5577 126.454 27.903 127.488 27.9054C128.138 27.9169 128.78 27.7544 129.347 27.4345C129.876 27.1354 130.3 26.6797 130.563 26.1293L133.559 27.8512C132.972 28.9114 132.112 29.7927 131.07 30.4021C129.992 31.0394 128.762 31.3684 127.512 31.3535Z" fill="black"/>
<path d="M146.555 29.2948C145.182 30.6675 143.506 31.3536 141.527 31.353C139.548 31.3524 137.876 30.6663 136.51 29.2948C135.145 27.9226 134.463 26.241 134.463 24.2497C134.463 22.2585 135.145 20.5768 136.51 19.2047C137.873 17.832 139.545 17.1459 141.525 17.1465C143.505 17.1471 145.18 17.8331 146.553 19.2047C147.925 20.5768 148.612 22.2585 148.612 24.2497C148.613 26.241 147.927 27.9226 146.555 29.2948ZM138.945 26.9133C139.633 27.6122 140.493 27.9617 141.527 27.9617C142.561 27.9617 143.426 27.6122 144.121 26.9133C144.816 26.2145 145.163 25.3266 145.163 24.2497C145.163 23.1729 144.816 22.285 144.121 21.5861C143.426 20.8872 142.562 20.5378 141.527 20.5378C140.493 20.5378 139.632 20.8872 138.945 21.5861C138.259 22.285 137.916 23.1729 137.916 24.2497C137.916 25.3266 138.259 26.2145 138.945 26.9133Z" fill="black"/>
<path d="M159.314 17.5234H163.111L158.03 30.9769H154.098L149.017 17.5234H152.814L156.056 26.9382L159.314 17.5234Z" fill="black"/>
<path d="M167.15 25.6754C167.614 27.3644 168.871 28.2088 170.922 28.2088C172.241 28.2088 173.24 27.7604 173.918 26.8635L176.697 28.4779C175.377 30.3998 173.433 31.3608 170.865 31.3608C168.654 31.3608 166.88 30.6881 165.543 29.3428C164.206 27.9974 163.537 26.3024 163.537 24.2575C163.537 22.2308 164.197 20.5401 165.516 19.1854C166.836 17.8308 168.529 17.1537 170.598 17.1543C172.56 17.1543 174.178 17.8357 175.453 19.1985C176.728 20.5613 177.365 22.2477 177.364 24.2575C177.363 24.7329 177.32 25.2074 177.238 25.6754H167.15ZM167.097 22.9847H173.918C173.721 22.0698 173.316 21.3881 172.702 20.9396C172.093 20.493 171.356 20.257 170.602 20.2669C169.676 20.2669 168.91 20.5048 168.303 20.9807C167.696 21.4565 167.294 22.1245 167.097 22.9847Z" fill="black"/>
<path d="M183.229 19.8375C183.55 18.9762 184.08 18.3303 184.82 17.8999C185.573 17.466 186.427 17.2431 187.294 17.2543V21.1287C186.243 21.0035 185.303 21.2187 184.473 21.7743C183.643 22.3299 183.229 23.2548 183.229 24.5489V30.9795H179.779V17.526H183.229V19.8375Z" fill="black"/>
<path d="M198.308 17.5234H202L197.123 30.9987C196.428 32.9207 195.506 34.3167 194.357 35.1868C193.208 36.0569 191.779 36.4474 190.07 36.3583V33.1259C190.996 33.1434 191.732 32.946 192.277 32.5336C192.821 32.1213 193.254 31.4577 193.574 30.5427L188.092 17.5234H191.862L195.35 26.5652L198.308 17.5234Z" fill="black"/>
<path fill-rule="evenodd" clip-rule="evenodd" d="M21.1792 20.8092C21.4501 22.331 21.5266 22.4245 22.7423 23.3741C24.387 14.6556 38.6424 22.1292 32.9814 33.6599C28.0881 43.6233 14.4944 43.4084 6.90298 35.9487C2.29186 31.4173 0.496038 25.7713 0.00453311 19.4708C-0.24643 34.5116 10.0066 40.5954 9.98661 41.8245C9.9649 43.1699 3.9305 40.6784 8.58938 42.8126C29.1336 52.2204 44.4302 31.3745 34.1833 19.8683C30.4857 15.7161 22.441 14.5953 21.1792 20.8092Z" fill="#5D8BF4"/>
<path fill-rule="evenodd" clip-rule="evenodd" d="M46.2727 31.8374C45.9254 20.9558 40.1497 10.1188 28.4187 8.963C14.3857 7.58009 7.97525 23.2429 16.1598 28.868C18.4019 30.409 21.0062 30.3531 22.5268 27.8503C12.0975 30.347 12.4761 11.6196 26.6811 11.8197C38.5345 11.9848 44.4691 25.2618 40.5466 35.9931C38.6535 41.1692 35.3684 44.7431 31.0682 48.0007C37.9362 43.8415 39.8224 40.6931 43.3558 33.9305C45.8333 29.1912 46.3083 38.827 46.2814 33.4867L46.2727 31.8374Z" fill="#04009A"/>
<path fill-rule="evenodd" clip-rule="evenodd" d="M19.0597 1.39776C9.74019 6.48998 2.78617 16.1441 6.61401 27.065C11.4101 40.743 28.288 38.9748 29.1616 29.9942C29.3587 27.9744 28.6406 26.4124 26.5478 26.1504C30.7655 35.4857 12.0084 39.3077 8.93086 24.6923C6.36565 12.5091 18.1887 3.46121 29.9249 4.50603C35.0388 4.96118 38.884 6.84728 43.298 9.22348C36.6375 4.1496 32.2313 2.89511 24.1146 2.30281C21.5928 2.11848 21.1021 2.16915 21.8976 0C20.9232 0.455146 20.014 0.904177 19.0597 1.39776Z" fill="#2D31FA"/>
</g>
<defs>
<clipPath id="clip0_362_196">
<rect width="202" height="48" fill="white"/>
</clipPath>
</defs>
</svg>
